<?xml version="1.0" standalone="no"?>
<!DOCTYPE svg PUBLIC "-//W3C//DTD SVG 20010904//EN"
 "http://www.w3.org/TR/2001/REC-SVG-20010904/DTD/svg10.dtd">
<svg version="1.0" xmlns="http://www.w3.org/2000/svg"
 width="1280.000000pt" height="720.000000pt" viewBox="0 0 1280.000000 720.000000"
 preserveAspectRatio="xMidYMid meet">
<rect width="100%" height="100%" fill="#fefefe"/>
<g transform="translate(0.000000,720.000000) scale(0.100000,-0.100000)"
fill="#000000" stroke="none">
<path d="M0 3600 l0 -3600 6400 0 6400 0 0 3600 0 3600 -6400 0 -6400 0 0
-3600z m6822 3011 c535 -79 1003 -276 1443 -610 147 -111 441 -409 556 -563
139 -186 270 -405 343 -570 l26 -58 -25 0 c-21 0 -32 17 -88 128 -423 842
-1214 1437 -2137 1606 -157 29 -354 46 -540 46 -481 0 -918 -102 -1340 -314
-578 -290 -1046 -759 -1337 -1338 -56 -111 -67 -128 -88 -128 l-25 0 26 58
c73 165 204 384 343 570 115 154 409 452 556 563 484 367 1003 571 1605 629
144 14 528 3 682 -19z m-588 -479 c2 -4 7 -65 11 -135 7 -122 7 -127 -12 -127
-18 0 -21 9 -27 92 -10 143 -8 178 8 178 8 0 17 -3 20 -8z m443 -89 l68 -98 7
45 c3 25 7 64 7 88 1 36 4 42 22 42 21 0 22 -2 15 -92 -10 -129 -17 -178 -27
-178 -5 0 -39 45 -76 101 -71 106 -81 110 -82 29 -2 -49 -12 -110 -20 -110
-28 1 -31 18 -21 121 14 128 18 149 29 149 5 0 40 -44 78 -97z m-827 27 c32
-17 14 -39 -29 -33 -73 10 -82 -52 -10 -70 65 -17 86 -29 98 -53 16 -37 14
-52 -14 -79 -19 -20 -34 -25 -74 -25 -51 0 -67 10 -57 35 4 11 11 12 35 4 39
-14 73 3 69 34 -2 17 -16 26 -58 39 -86 28 -115 82 -67 125 36 33 73 41 107
23z m1391 -51 c55 -17 69 -25 69 -41 0 -14 -5 -18 -17 -14 -10 2 -37 10 -61
17 -48 14 -62 6 -62 -37 0 -17 10 -24 45 -34 33 -9 45 -18 45 -31 0 -23 -5
-23 -60 -4 -23 8 -44 15 -45 15 -4 0 -25 -60 -25 -70 0 -4 27 -15 60 -24 44
-12 58 -21 53 -31 -7 -20 -18 -19 -98 6 -40 12 -65 25 -63 32 3 7 20 63 38
125 19 61 38 112 43 112 5 0 40 -9 78 -21z m-1820 -146 c46 -101 50 -121 35
-158 -8 -18 -24 -40 -37 -49 -27 -18 -81 -21 -111 -5 -21 11 -110 188 -101
202 14 23 38 -1 72 -76 37 -80 52 -97 89 -97 25 0 52 31 52 59 0 14 -16 60
-34 101 -32 71 -32 89 -3 90 4 0 22 -30 38 -67z m2269 -38 c37 -19 58 -54 39
-66 -9 -5 -23 0 -39 16 -15 14 -35 25 -47 25 -35 0 -36 -30 -3 -76 41 -58 48
-96 21 -123 -34 -34 -86 -28 -128 14 -33 33 -37 55 -8 55 7 0 15 -6 18 -14 9
-23 52 -47 71 -40 24 9 19 44 -14 93 -35 52 -37 69 -9 105 23 30 56 33 99 11z
m-2762 -191 c15 -10 22 -25 22 -49 0 -29 4 -34 27 -37 37 -4 61 -46 48 -84
-11 -30 -91 -97 -109 -91 -13 4 -146 188 -145 202 0 18 90 75 119 75 9 0 26
-7 38 -16z m3152 -59 c16 -9 37 -29 45 -45 14 -28 14 -31 -1 -37 -10 -4 -20 0
-25 10 -27 47 -73 63 -84 28 -3 -12 3 -37 15 -60 11 -22 20 -54 20 -71 0 -37
-31 -70 -65 -70 -29 0 -90 54 -100 88 -10 35 26 27 50 -11 22 -35 52 -42 69
-15 8 13 5 28 -12 63 -28 58 -28 80 3 110 28 29 45 31 85 10z m-7115 -1372 c4
-10 52 -146 106 -303 55 -157 104 -288 108 -293 4 -4 40 119 80 274 40 154 76
292 82 305 8 23 13 25 71 22 55 -3 63 -6 66 -23 3 -19 -226 -852 -248 -902
-11 -25 -51 -31 -67 -10 -5 6 -61 157 -123 334 -63 177 -115 321 -117 320 -1
-2 -53 -147 -114 -323 -61 -175 -116 -325 -121 -331 -17 -22 -58 -16 -67 10
-31 84 -252 899 -248 911 5 12 21 16 67 16 53 0 62 -3 70 -22 6 -13 44 -151
85 -307 41 -156 76 -285 77 -287 2 -1 52 139 112 312 l109 314 32 0 c22 0 35
-6 40 -17z m2748 -447 c194 -427 208 -461 191 -473 -26 -19 -98 -16 -121 5
-11 9 -37 56 -59 105 l-38 87 -212 0 -211 0 -42 -92 c-23 -51 -50 -99 -59
-105 -21 -17 -93 -16 -117 0 -17 13 -6 41 185 458 111 244 207 452 212 462 6
12 18 17 36 15 25 -3 41 -34 235 -462z m4379 125 c75 -183 139 -335 141 -337
2 -3 53 114 112 258 180 443 165 413 202 416 27 3 33 -1 38 -20 3 -13 41 -220
85 -462 62 -337 78 -441 69 -452 -13 -16 -96 -19 -118 -5 -9 6 -30 105 -62
296 -26 158 -50 289 -52 291 -2 2 -48 -110 -102 -249 -139 -356 -139 -357
-168 -357 -14 0 -29 6 -35 13 -5 6 -60 140 -122 297 -61 157 -115 288 -119
292 -4 4 -28 -123 -54 -284 -29 -181 -51 -294 -59 -300 -15 -9 -89 -11 -112
-2 -9 3 -16 14 -16 23 0 19 157 876 166 904 4 13 14 17 37 15 32 -3 32 -3 169
-337z m1555 327 c6 -7 101 -214 213 -460 170 -374 201 -450 190 -463 -15 -19
-99 -20 -122 -2 -9 6 -36 54 -59 105 l-42 92 -211 0 -211 0 -39 -87 c-49 -113
-59 -123 -112 -123 -55 0 -74 8 -74 30 0 14 275 627 403 898 11 24 48 30 64
10z m1455 -8 c64 -20 162 -80 182 -112 9 -14 3 -25 -29 -58 -21 -22 -45 -40
-53 -40 -8 0 -27 11 -43 24 -83 71 -242 86 -344 34 -63 -33 -116 -88 -152
-158 -24 -48 -27 -67 -28 -145 0 -79 4 -97 28 -147 93 -189 318 -248 491 -128
25 16 49 30 53 30 18 0 85 -78 81 -96 -5 -26 -113 -97 -183 -119 -86 -28 -229
-26 -310 5 -129 49 -211 123 -271 245 -93 191 -47 424 112 564 126 111 307
150 466 101z m-8507 -55 l0 -60 -220 -5 -220 -5 0 -130 0 -130 188 -3 188 -2
-3 -63 -3 -62 -188 -3 -188 -2 3 -138 3 -137 220 -5 220 -5 0 -55 0 -55 -290
0 -290 0 -3 450 c-1 248 0 456 3 463 3 10 67 12 292 10 l288 -3 0 -60z m1953
-342 l2 -403 193 -2 192 -3 0 -55 0 -55 -262 -3 -263 -2 0 458 c0 252 3 462 7
466 4 4 34 6 68 4 l60 -3 3 -402z m1337 342 l0 -60 -117 -3 -118 -3 0 -392 c0
-292 -3 -396 -12 -405 -13 -13 -96 -16 -115 -4 -10 6 -13 102 -15 403 l-3 394
-115 3 c-76 2 -117 7 -122 15 -12 19 -9 92 4 105 9 9 87 12 313 10 l300 -3 0
-60z m655 -135 l5 -195 237 -3 238 -2 2 197 3 198 58 3 c35 2 64 -2 73 -9 12
-10 14 -85 14 -455 0 -389 -2 -444 -16 -458 -19 -19 -104 -22 -122 -4 -9 9
-12 68 -12 205 l0 193 -240 0 -240 0 0 -199 c0 -221 3 -211 -70 -211 -76 0
-70 -39 -70 469 0 252 3 461 7 465 4 4 34 6 68 4 l60 -3 5 -195z m5424 194
c14 -5 16 -32 16 -198 l1 -191 192 198 192 199 64 -4 c114 -6 112 -9 -113
-238 l-197 -201 69 -77 c39 -42 131 -144 206 -227 75 -82 136 -155 136 -162 0
-21 -36 -33 -96 -33 -66 0 -38 -25 -292 262 l-157 177 -3 -207 c-3 -231 -3
-232 -73 -232 -75 0 -69 -39 -69 469 0 252 3 461 7 464 8 9 96 9 117 1z
m-6415 -1544 c25 -13 45 -64 37 -94 -3 -14 -29 -52 -56 -85 l-50 -60 53 -3
c44 -3 52 -6 52 -23 0 -18 -8 -20 -92 -23 -87 -3 -93 -1 -93 17 0 11 4 22 9
26 20 12 131 157 131 170 0 8 -11 22 -24 30 -22 14 -27 14 -60 -2 -29 -13 -39
-14 -49 -4 -9 10 -6 17 16 37 30 26 92 33 126 14z m602 0 c32 -17 49 -64 49
-134 0 -110 -30 -156 -103 -156 -74 0 -107 47 -107 150 0 102 32 150 101 150
22 0 49 -5 60 -10z m598 0 c25 -13 45 -64 37 -94 -3 -14 -29 -52 -56 -85 l-50
-60 53 -3 c44 -3 52 -6 52 -23 0 -18 -8 -20 -92 -23 -114 -3 -116 2 -37 95 73
87 86 107 78 127 -12 31 -40 38 -79 19 -28 -13 -38 -14 -48 -4 -9 10 -6 17 16
37 30 26 92 33 126 14z m611 -10 c30 -30 40 -63 40 -130 0 -102 -33 -150 -105
-150 -72 0 -105 48 -105 151 0 66 19 121 47 138 32 18 101 13 123 -9z m-3675
-322 c379 -812 1112 -1420 1975 -1638 250 -63 472 -90 740 -90 481 0 918 102
1340 314 602 302 1090 805 1375 1414 23 50 33 62 52 62 13 0 23 -4 23 -9 0
-19 -148 -300 -210 -399 -126 -201 -245 -349 -434 -537 -287 -287 -558 -475
-907 -631 -941 -422 -2036 -334 -2904 233 -181 119 -298 215 -481 398 -189
188 -308 336 -434 537 -62 99 -210 380 -210 399 0 5 10 9 23 9 19 0 29 -12 52
-62z m1001 -407 c-26 -50 -42 -91 -37 -91 4 0 49 15 100 34 50 19 93 31 96 26
2 -4 -32 -55 -77 -114 -71 -92 -83 -105 -96 -92 -12 12 -7 23 38 80 28 36 50
66 47 66 -3 0 -42 -14 -87 -31 -45 -17 -83 -29 -86 -27 -2 3 12 40 31 83 20
43 34 79 32 81 -1 2 -31 -15 -65 -38 -56 -36 -65 -40 -78 -26 -13 13 -2 23 98
85 62 39 117 67 121 63 5 -4 -12 -49 -37 -99z m3505 28 c49 -45 89 -86 89 -91
0 -6 -47 -9 -126 -7 l-126 4 67 -61 c61 -56 76 -84 43 -84 -13 0 -188 159
-188 171 0 5 55 9 123 9 l122 1 -64 58 c-58 53 -72 81 -39 81 6 0 50 -36 99
-81z m-384 -299 c45 -27 66 -64 66 -115 0 -51 -21 -88 -66 -115 -87 -54 -200
11 -200 115 0 104 113 169 200 115z m-2660 -15 c114 -75 61 -245 -78 -245 -80
0 -136 65 -126 147 11 98 122 151 204 98z m381 -217 c54 -25 69 -36 63 -47 -7
-11 -15 -11 -39 -3 -33 11 -30 16 -101 -150 -15 -35 -24 -46 -36 -42 -22 9
-19 23 25 119 22 48 40 90 40 94 0 4 -11 13 -25 19 -26 12 -34 42 -11 42 7 0
45 -15 84 -32z m1868 -84 c30 -63 52 -119 49 -125 -16 -25 -36 1 -85 107 -44
95 -51 117 -39 125 8 5 15 9 17 9 2 0 28 -52 58 -116z m-307 -25 c-8 -5 -22
-9 -31 -9 -24 0 -23 -20 7 -115 14 -44 25 -87 25 -96 0 -20 -29 -34 -35 -16
-2 6 -16 53 -31 102 -14 50 -29 94 -33 98 -4 4 -20 3 -35 -3 -21 -8 -28 -7
-33 6 -8 21 -6 22 83 47 67 20 80 21 88 9 5 -9 3 -17 -5 -23z m-1237 -4 c7 -8
-51 -237 -63 -250 -6 -5 -13 -5 -20 2 -9 9 -5 41 16 125 15 62 30 116 32 121
5 8 27 10 35 2z m260 -57 c8 -7 28 -50 43 -95 16 -46 31 -83 34 -83 4 0 26 37
51 81 44 81 63 100 80 83 9 -9 -120 -246 -137 -251 -8 -3 -103 245 -103 270 0
11 14 8 32 -5z m590 -119 c37 -63 67 -117 68 -121 1 -17 -36 -6 -55 16 -18 22
-26 24 -77 19 -52 -5 -57 -8 -63 -33 -6 -28 -29 -45 -45 -35 -12 8 80 277 93
272 7 -2 42 -55 79 -118z"/>
<path d="M4850 5603 c-14 -9 -27 -18 -29 -19 -2 -2 7 -17 19 -34 l22 -30 29
21 c33 23 36 40 13 63 -19 20 -24 20 -54 -1z"/>
<path d="M4912 5510 l-33 -20 23 -30 c12 -17 24 -30 26 -30 2 0 17 9 33 21 31
21 37 47 17 67 -16 16 -28 15 -66 -8z"/>
<path d="M3400 3798 c-40 -90 -75 -169 -77 -175 -4 -10 30 -13 152 -13 122 0
156 3 152 13 -11 26 -150 332 -152 335 -1 1 -35 -71 -75 -160z"/>
<path d="M9538 3787 l-76 -172 150 -3 c83 -1 153 -1 155 2 4 3 -110 264 -141
323 -10 20 -19 5 -88 -150z"/>
<path d="M6061 2614 c-16 -20 -21 -41 -21 -86 0 -49 4 -63 25 -84 20 -20 29
-23 45 -14 29 16 40 43 40 100 0 97 -45 139 -89 84z"/>
<path d="M7261 2614 c-16 -20 -21 -41 -21 -86 0 -49 4 -63 25 -84 20 -20 29
-23 45 -14 29 16 40 43 40 103 0 56 -26 107 -55 107 -7 0 -23 -12 -34 -26z"/>
<path d="M7683 1622 c-72 -57 -34 -172 57 -172 67 0 111 62 89 127 -18 57 -99
82 -146 45z"/>
<path d="M5028 1614 c-55 -29 -66 -103 -22 -148 25 -25 44 -30 89 -27 28 3 75
57 75 87 0 37 -25 78 -55 92 -34 15 -54 15 -87 -4z"/>
<path d="M6611 1136 c-6 -25 -11 -47 -11 -50 0 -5 71 4 78 9 4 4 -46 85 -52
85 -2 0 -9 -20 -15 -44z"/>
</g>
</svg>
